<svg id="svg" version="1.1" xmlns="http://www.w3.org/2000/svg" xmlns:xlink="http://www.w3.org/1999/xlink" width="400" height="361.3333333333333" viewBox="0, 0, 400,361.3333333333333"><g id="svgg"><path id="path0" d="M195.408 14.101 C 192.159 14.610,191.587 15.015,171.597 30.983 C 146.493 51.035,94.227 92.793,52.033 126.507 C 10.891 159.381,12.887 157.395,12.847 165.492 C 12.801 174.664,19.392 180.276,29.240 179.451 C 33.222 179.117,33.822 178.729,48.897 166.757 C 56.404 160.795,62.742 155.917,62.981 155.917 C 63.316 155.917,63.456 170.081,63.595 218.248 L 63.776 280.578 64.897 282.944 C 66.380 286.074,67.902 287.741,70.395 288.965 L 72.448 289.973 94.490 289.973 C 123.164 289.973,120.687 291.189,120.687 277.108 C 120.687 263.398,121.475 264.001,103.358 263.849 C 94.915 263.778,90.387 263.609,90.079 263.353 C 89.587 262.944,89.355 136.316,89.843 134.494 C 89.976 133.997,92.458 131.754,96.071 128.867 C 102.841 123.455,136.929 96.254,166.757 72.461 C 177.687 63.742,189.232 54.524,192.412 51.977 C 195.592 49.430,198.411 47.344,198.677 47.341 C 198.943 47.338,202.520 49.990,206.626 53.235 C 215.133 59.958,234.856 75.595,246.612 84.938 C 250.985 88.413,259.115 94.863,264.679 99.272 C 299.984 127.246,306.983 132.886,307.392 133.695 C 307.757 134.415,307.832 147.728,307.764 199.458 L 307.678 264.318 295.393 264.501 C 277.825 264.764,278.483 264.305,278.295 276.423 C 278.066 291.230,276.145 290.226,304.426 290.080 L 325.023 289.973 327.087 288.959 C 329.606 287.722,331.762 285.358,332.870 282.619 L 333.695 280.578 333.790 218.080 C 333.846 181.571,334.021 155.446,334.211 155.256 C 334.405 155.062,336.184 156.230,338.595 158.133 C 340.827 159.895,346.248 164.185,350.640 167.666 C 365.881 179.745,365.275 179.404,371.454 179.376 C 381.091 179.332,386.075 174.456,386.014 165.131 C 385.962 157.226,386.564 157.891,361.485 138.046 C 355.342 133.186,344.625 124.699,337.669 119.187 C 299.911 89.266,284.743 77.249,276.603 70.806 C 271.635 66.873,262.285 59.467,255.827 54.349 C 202.162 11.822,206.318 15.032,204.190 14.469 C 202.160 13.933,197.678 13.745,195.408 14.101 " stroke="none" fill="#fcfcfc" fill-rule="evenodd"></path><path id="path1" d="M228.546 121.891 C 224.912 123.099,224.651 123.354,215.730 134.417 C 212.125 138.889,207.591 144.499,205.656 146.883 C 203.720 149.268,197.429 157.055,191.674 164.187 C 185.919 171.319,174.947 184.896,167.292 194.358 C 126.204 245.149,129.649 240.776,128.569 243.507 C 127.464 246.304,127.467 250.269,128.577 252.735 C 131.297 258.784,136.027 260.230,149.413 259.107 C 159.757 258.238,166.961 257.873,167.287 258.201 C 167.491 258.407,165.376 264.285,161.836 273.351 C 158.655 281.500,152.122 298.248,147.318 310.569 L 138.584 332.972 138.578 336.585 C 138.566 344.130,142.953 348.426,150.093 347.861 C 155.507 347.433,156.412 346.799,163.723 338.313 C 166.768 334.779,172.192 328.489,175.777 324.335 C 184.398 314.345,197.617 299.014,205.717 289.612 C 209.312 285.438,218.277 275.044,225.639 266.514 C 270.459 214.579,266.558 219.259,267.436 216.368 C 269.297 210.243,266.930 204.593,261.473 202.131 C 258.539 200.807,253.789 200.611,243.645 201.392 C 234.123 202.126,216.441 202.412,216.441 201.832 C 216.441 201.471,220.817 190.774,238.036 149.051 L 242.957 137.127 243.109 133.639 C 243.488 124.944,236.447 119.264,228.546 121.891 M187.522 208.885 C 184.851 216.129,186.442 222.237,191.702 224.932 L 193.817 226.016 205.560 225.971 C 212.018 225.946,219.751 225.722,222.744 225.473 C 225.736 225.225,228.580 225.082,229.063 225.157 C 229.852 225.280,228.918 226.484,219.843 237.037 C 214.288 243.496,204.850 254.472,198.869 261.427 C 187.912 274.169,186.450 275.774,186.450 275.060 C 186.450 274.664,187.941 270.789,193.363 257.091 L 196.367 249.503 196.377 245.348 C 196.401 235.179,189.825 232.511,170.009 234.651 C 167.624 234.908,165.472 235.017,165.227 234.893 C 164.848 234.700,180.031 215.329,186.712 207.480 C 188.791 205.039,188.882 205.197,187.522 208.885 " stroke="none" fill="#2394f4" fill-rule="evenodd"></path><path id="path2" d="" stroke="none" fill="#100c8f8" fill-rule="evenodd"></path><path id="path3" d="" stroke="none" fill="#100c8f8" fill-rule="evenodd"></path><path id="path4" d="" stroke="none" fill="#100c8f8" fill-rule="evenodd"></path></g></svg>